<svg width="60" height="81" viewBox="0 0 60 81" fill="none" xmlns="http://www.w3.org/2000/svg">
<path d="M60 30C60 46.5685 42 81 30 81C18 81 0 46.5685 0 30C0 13.4315 13.4315 0 30 0C46.5685 0 60 13.4315 60 30Z" fill="#144F7B"/>
<g clip-path="url(#clip0_497_2743)">
<g filter="url(#filter0_d_497_2743)">
<path fill-rule="evenodd" clip-rule="evenodd" d="M22.5 19.026V17C22.5 15.0109 23.2901 13.1032 24.6967 11.6967C26.1032 10.2902 28.0108 9.5 30 9.5C31.9891 9.5 33.8967 10.2902 35.3033 11.6967C36.7098 13.1032 37.5 15.0109 37.5 17V19.026C40.094 19.1 41.674 19.366 42.884 20.36C44.544 21.72 45.004 24.028 45.93 28.646L47.13 34.646C48.458 41.286 49.122 44.606 47.322 46.804C45.522 49.002 42.134 49 35.36 49H24.64C17.868 49 14.48 49 12.68 46.804C10.88 44.608 11.544 41.288 12.872 34.646L14.072 28.646C14.996 24.028 15.458 21.72 17.116 20.36C18.328 19.368 19.908 19.1 22.502 19.026M25.5 17C25.5 15.8065 25.9741 14.6619 26.818 13.818C27.6619 12.9741 28.8065 12.5 30 12.5C31.1934 12.5 32.338 12.9741 33.1819 13.818C34.0259 14.6619 34.5 15.8065 34.5 17V19H25.5V17ZM30 39.5C29.0692 39.5003 28.1612 39.2119 27.4011 38.6746C26.641 38.1373 26.0662 37.3776 25.756 36.5C25.6927 36.3113 25.5925 36.137 25.4612 35.9874C25.3299 35.8378 25.1701 35.7158 24.9912 35.6286C24.8123 35.5413 24.6178 35.4906 24.4191 35.4793C24.2204 35.4679 24.0214 35.4963 23.8337 35.5626C23.646 35.629 23.4735 35.732 23.326 35.8658C23.1786 35.9995 23.0592 36.1612 22.9749 36.3416C22.8906 36.5219 22.8431 36.7172 22.835 36.9161C22.8269 37.1149 22.8585 37.3134 22.928 37.5C23.4451 38.9627 24.4029 40.2291 25.6696 41.1248C26.9363 42.0205 28.4496 42.5015 30.001 42.5015C31.5524 42.5015 33.0656 42.0205 34.3323 41.1248C35.599 40.2291 36.5569 38.9627 37.074 37.5C37.2066 37.1247 37.1847 36.7121 37.0131 36.353C36.8415 35.9939 36.5342 35.7176 36.159 35.585C35.7837 35.4524 35.3711 35.4743 35.012 35.6459C34.6528 35.8175 34.3766 36.1247 34.244 36.5C33.9337 37.3776 33.3589 38.1373 32.5988 38.6746C31.8388 39.2119 30.9308 39.5003 30 39.5Z" fill="white"/>
</g>
</g>
<defs>
<filter id="filter0_d_497_2743" x="7.58154" y="7.5" width="44.8389" height="47.5" filterUnits="userSpaceOnUse" color-interpolation-filters="sRGB">
<feFlood flood-opacity="0" result="BackgroundImageFix"/>
<feColorMatrix in="SourceAlpha" type="matrix" values="0 0 0 0 0 0 0 0 0 0 0 0 0 0 0 0 0 0 127 0" result="hardAlpha"/>
<feOffset dy="2"/>
<feGaussianBlur stdDeviation="2"/>
<feComposite in2="hardAlpha" operator="out"/>
<feColorMatrix type="matrix" values="0 0 0 0 0 0 0 0 0 0 0 0 0 0 0 0 0 0 0.2 0"/>
<feBlend mode="normal" in2="BackgroundImageFix" result="effect1_dropShadow_497_2743"/>
<feBlend mode="normal" in="SourceGraphic" in2="effect1_dropShadow_497_2743" result="shape"/>
</filter>
<clipPath id="clip0_497_2743">
<rect width="48" height="48" fill="white" transform="translate(6 5)"/>
</clipPath>
</defs>
</svg>
