<svg width="60" height="81" viewBox="0 0 60 81" fill="none" xmlns="http://www.w3.org/2000/svg">
<path d="M60 30C60 46.5685 42 81 30 81C18 81 0 46.5685 0 30C0 13.4315 13.4315 0 30 0C46.5685 0 60 13.4315 60 30Z" fill="#B92C2C"/>
<g clip-path="url(#clip0_497_2752)">
<g filter="url(#filter0_d_497_2752)">
<path d="M46.324 14.796C47.136 15.776 47.834 16.854 48.396 18.008C48.0593 18.6659 47.5934 19.2492 47.0262 19.7231C46.459 20.1969 45.8021 20.5516 45.0948 20.7659C44.3874 20.9802 43.6442 21.0498 42.9094 20.9704C42.1745 20.8911 41.4633 20.6644 40.818 20.304L46.324 14.796ZM44.204 12.676L38.696 18.18C38.3355 17.5349 38.1088 16.8237 38.0293 16.089C37.9497 15.3542 38.0191 14.611 38.2332 13.9037C38.4474 13.1964 38.8018 12.5395 39.2755 11.9722C39.7491 11.4049 40.3322 10.9389 40.99 10.602C42.1403 11.1617 43.2193 11.8573 44.204 12.674M50 25C50 23.77 49.86 22.572 49.598 21.42C48.8063 22.2373 47.8583 22.8869 46.8103 23.3302C45.7623 23.7734 44.6359 24.0012 43.498 24C41.7622 24.0027 40.0675 23.4713 38.644 22.478L37.122 24L47.186 34.064C49.0237 31.399 50.0054 28.2372 50 25ZM35 15.5C35 13.108 35.988 10.946 37.58 9.4C35.4196 8.90829 33.1809 8.86891 31.0045 9.28436C28.8282 9.6998 26.7613 10.5611 24.934 11.814L35 21.878L36.522 20.356C35.5283 18.9319 34.9969 17.2365 35 15.5ZM35 26.12L45.252 36.374C43.2417 38.3651 40.7393 39.7874 38 40.496C38.008 35.8421 36.3428 31.3403 33.308 27.812L35 26.12ZM31.188 25.692C27.6597 22.6572 23.1579 20.992 18.504 21C19.212 18.2609 20.6337 15.7586 22.624 13.748L32.88 24L31.188 25.692ZM14.5 23C13.3065 23 12.1619 23.4741 11.318 24.318C10.4741 25.1619 10 26.3065 10 27.5V31.5C10 36.1413 11.8437 40.5925 15.1256 43.8744C18.4075 47.1563 22.8587 49 27.5 49H31.5C32.6935 49 33.8381 48.5259 34.682 47.682C35.5259 46.8381 36 45.6935 36 44.5V40.5C36 35.8587 34.1563 31.4075 30.8744 28.1256C27.5925 24.8437 23.1413 23 18.5 23H14.5ZM19.44 32.44C19.7213 32.1591 20.1025 32.0013 20.5 32.0013C20.8975 32.0013 21.2787 32.1591 21.56 32.44L26.56 37.44C26.7074 37.5773 26.8256 37.7429 26.9076 37.9269C26.9895 38.1109 27.0336 38.3095 27.0372 38.511C27.0407 38.7124 27.0037 38.9124 26.9282 39.0992C26.8528 39.286 26.7405 39.4556 26.5981 39.5981C26.4556 39.7405 26.286 39.8528 26.0992 39.9282C25.9124 40.0037 25.7124 40.0407 25.511 40.0372C25.3096 40.0336 25.1109 39.9895 24.9269 39.9076C24.7429 39.8256 24.5773 39.7074 24.44 39.56L19.44 34.56C19.1591 34.2787 19.0013 33.8975 19.0013 33.5C19.0013 33.1025 19.1591 32.7212 19.44 32.44Z" fill="white"/>
</g>
</g>
<defs>
<filter id="filter0_d_497_2752" x="6" y="6.99951" width="48" height="48.0005" filterUnits="userSpaceOnUse" color-interpolation-filters="sRGB">
<feFlood flood-opacity="0" result="BackgroundImageFix"/>
<feColorMatrix in="SourceAlpha" type="matrix" values="0 0 0 0 0 0 0 0 0 0 0 0 0 0 0 0 0 0 127 0" result="hardAlpha"/>
<feOffset dy="2"/>
<feGaussianBlur stdDeviation="2"/>
<feComposite in2="hardAlpha" operator="out"/>
<feColorMatrix type="matrix" values="0 0 0 0 0 0 0 0 0 0 0 0 0 0 0 0 0 0 0.2 0"/>
<feBlend mode="normal" in2="BackgroundImageFix" result="effect1_dropShadow_497_2752"/>
<feBlend mode="normal" in="SourceGraphic" in2="effect1_dropShadow_497_2752" result="shape"/>
</filter>
<clipPath id="clip0_497_2752">
<rect width="48" height="48" fill="white" transform="translate(6 5)"/>
</clipPath>
</defs>
</svg>
