<svg width="60" height="81" viewBox="0 0 60 81" fill="none" xmlns="http://www.w3.org/2000/svg">
<path d="M60 30C60 46.5685 42 81 30 81C18 81 0 46.5685 0 30C0 13.4315 13.4315 0 30 0C46.5685 0 60 13.4315 60 30Z" fill="#C41ABF"/>
<g filter="url(#filter0_d_504_2906)">
<path d="M44.894 18.69C44.4927 17.3292 43.6598 16.1358 42.5208 15.2898C41.3819 14.4438 39.9987 13.9911 38.58 14C36.9357 14.0015 35.3515 14.6179 34.1387 15.7282C32.9259 16.8385 32.1723 18.3623 32.026 20H27.976C27.8277 18.3606 27.0716 16.8359 25.8562 15.7256C24.6408 14.6153 23.0541 13.9998 21.408 14C19.9913 13.9937 18.6109 14.4476 17.4744 15.2934C16.3379 16.1392 15.5067 17.3312 15.106 18.69L10.084 35.426C10.0283 35.6122 9.99996 35.8056 10 36V38C10.0032 40.6515 11.058 43.1935 12.9331 45.0683C14.8083 46.943 17.3505 47.9974 20.002 48C21.9455 47.9975 23.8462 47.4286 25.4716 46.363C27.097 45.2974 28.3766 43.7813 29.154 42H30.846C31.6234 43.7813 32.903 45.2974 34.5284 46.363C36.1538 47.4286 38.0545 47.9975 39.998 48C42.6499 47.9974 45.1924 46.9427 47.0676 45.0676C48.9427 43.1924 49.9974 40.6499 50 37.998V36C50 35.804 49.972 35.6127 49.916 35.426L44.894 18.69ZM20.002 44C18.4112 43.9979 16.8861 43.3651 15.761 42.2404C14.6359 41.1157 14.0026 39.5908 14 38C14 37.848 14.034 37.706 14.044 37.556C14.1534 36.0496 14.8279 34.6401 15.9323 33.6099C17.0368 32.5796 18.4896 32.0046 20 32C21.5913 32 23.1174 32.6321 24.2426 33.7574C25.3679 34.8826 26 36.4087 26 38V38.018C25.9931 39.6052 25.3585 41.1252 24.2347 42.246C23.1109 43.3668 21.5892 43.9974 20.002 44ZM39.998 44C38.4108 43.9974 36.8891 43.3668 35.7653 42.246C34.6415 41.1252 34.0069 39.6052 34 38.018V38C33.9999 37.2121 34.1549 36.4318 34.4563 35.7038C34.7577 34.9758 35.1996 34.3143 35.7567 33.7571C36.8817 32.6317 38.4077 31.9993 39.999 31.999C41.5903 31.9987 43.1165 32.6306 44.2419 33.7557C45.3673 34.8807 45.9997 36.4067 46 37.998C45.9979 39.5892 45.3649 41.1146 44.2397 42.2397C43.1146 43.3649 41.5892 43.9979 39.998 44Z" fill="white"/>
</g>
<defs>
<filter id="filter0_d_504_2906" x="6" y="11.9999" width="48" height="42.0001" filterUnits="userSpaceOnUse" color-interpolation-filters="sRGB">
<feFlood flood-opacity="0" result="BackgroundImageFix"/>
<feColorMatrix in="SourceAlpha" type="matrix" values="0 0 0 0 0 0 0 0 0 0 0 0 0 0 0 0 0 0 127 0" result="hardAlpha"/>
<feOffset dy="2"/>
<feGaussianBlur stdDeviation="2"/>
<feComposite in2="hardAlpha" operator="out"/>
<feColorMatrix type="matrix" values="0 0 0 0 0 0 0 0 0 0 0 0 0 0 0 0 0 0 0.1 0"/>
<feBlend mode="normal" in2="BackgroundImageFix" result="effect1_dropShadow_504_2906"/>
<feBlend mode="normal" in="SourceGraphic" in2="effect1_dropShadow_504_2906" result="shape"/>
</filter>
</defs>
</svg>
