<svg width="60" height="81" viewBox="0 0 60 81" fill="none" xmlns="http://www.w3.org/2000/svg">
<path d="M60 30C60 46.5685 42 81 30 81C18 81 0 46.5685 0 30C0 13.4315 13.4315 0 30 0C46.5685 0 60 13.4315 60 30Z" fill="#EADE00"/>
<g filter="url(#filter0_d_504_2924)">
<path d="M30.5 39.5833C32.8125 39.5833 34.7784 38.7816 36.3978 37.178C38.0172 35.5744 38.8262 33.6262 38.825 31.3333C38.8238 29.0404 38.0147 27.0928 36.3978 25.4905C34.7809 23.8882 32.815 23.0858 30.5 23.0833C28.185 23.0809 26.2197 23.8833 24.604 25.4905C22.9884 27.0977 22.1787 29.0453 22.175 31.3333C22.1713 33.6213 22.981 35.5696 24.604 37.178C26.2271 38.7864 28.1924 39.5882 30.5 39.5833ZM30.5 35.9167C29.205 35.9167 28.1104 35.4736 27.2162 34.5875C26.3221 33.7014 25.875 32.6167 25.875 31.3333C25.875 30.05 26.3221 28.9653 27.2162 28.0792C28.1104 27.1931 29.205 26.75 30.5 26.75C31.795 26.75 32.8896 27.1931 33.7837 28.0792C34.6779 28.9653 35.125 30.05 35.125 31.3333C35.125 32.6167 34.6779 33.7014 33.7837 34.5875C32.8896 35.4736 31.795 35.9167 30.5 35.9167ZM15.7 46C14.6825 46 13.8118 45.6413 13.0878 44.9238C12.3638 44.2064 12.0012 43.3429 12 42.3333V20.3333C12 19.325 12.3626 18.4621 13.0878 17.7447C13.813 17.0272 14.6837 16.6679 15.7 16.6667H21.5275L24.95 13H36.05L39.4725 16.6667H45.3C46.3175 16.6667 47.1888 17.026 47.914 17.7447C48.6392 18.4633 49.0012 19.3262 49 20.3333V42.3333C49 43.3417 48.638 44.2052 47.914 44.9238C47.1901 45.6425 46.3187 46.0012 45.3 46H15.7Z" fill="white"/>
</g>
<defs>
<filter id="filter0_d_504_2924" x="8" y="11" width="45" height="41" filterUnits="userSpaceOnUse" color-interpolation-filters="sRGB">
<feFlood flood-opacity="0" result="BackgroundImageFix"/>
<feColorMatrix in="SourceAlpha" type="matrix" values="0 0 0 0 0 0 0 0 0 0 0 0 0 0 0 0 0 0 127 0" result="hardAlpha"/>
<feOffset dy="2"/>
<feGaussianBlur stdDeviation="2"/>
<feComposite in2="hardAlpha" operator="out"/>
<feColorMatrix type="matrix" values="0 0 0 0 0 0 0 0 0 0 0 0 0 0 0 0 0 0 0.1 0"/>
<feBlend mode="normal" in2="BackgroundImageFix" result="effect1_dropShadow_504_2924"/>
<feBlend mode="normal" in="SourceGraphic" in2="effect1_dropShadow_504_2924" result="shape"/>
</filter>
</defs>
</svg>
