<svg width="100" height="100" viewBox="0 0 100 100" fill="none" xmlns="http://www.w3.org/2000/svg">
<path d="M50 100C48.8333 100 47.8333 99.6667 47 99C46.1667 98.3333 45.5417 97.4583 45.125 96.375C43.5417 91.7083 41.5417 87.3333 39.125 83.25C36.7917 79.1667 33.5 74.375 29.25 68.875C25 63.375 21.5417 58.125 18.875 53.125C16.2917 48.125 15 42.0833 15 35C15 25.25 18.375 17 25.125 10.25C31.9583 3.41666 40.25 0 50 0C59.75 0 68 3.41666 74.75 10.25C81.5833 17 85 25.25 85 35C85 42.5833 83.5417 48.9167 80.625 54C77.7917 59 74.5 63.9583 70.75 68.875C66.25 74.875 62.8333 79.875 60.5 83.875C58.25 87.7917 56.375 91.9583 54.875 96.375C54.4583 97.5417 53.7917 98.4583 52.875 99.125C52.0417 99.7083 51.0833 100 50 100ZM50 82.125C51.4167 79.2917 53 76.5 54.75 73.75C56.5833 71 59.25 67.3333 62.75 62.75C66.3333 58.0833 69.25 53.7917 71.5 49.875C73.8333 45.875 75 40.9167 75 35C75 28.0833 72.5417 22.2083 67.625 17.375C62.7917 12.4583 56.9167 10 50 10C43.0833 10 37.1667 12.4583 32.25 17.375C27.4167 22.2083 25 28.0833 25 35C25 40.9167 26.125 45.875 28.375 49.875C30.7083 53.7917 33.6667 58.0833 37.25 62.75C40.75 67.3333 43.375 71 45.125 73.75C46.9583 76.5 48.5833 79.2917 50 82.125ZM50 47.5C53.5 47.5 56.4583 46.2917 58.875 43.875C61.2917 41.4583 62.5 38.5 62.5 35C62.5 31.5 61.2917 28.5417 58.875 26.125C56.4583 23.7083 53.5 22.5 50 22.5C46.5 22.5 43.5417 23.7083 41.125 26.125C38.7083 28.5417 37.5 31.5 37.5 35C37.5 38.5 38.7083 41.4583 41.125 43.875C43.5417 46.2917 46.5 47.5 50 47.5Z" fill="#808080"/>
</svg>
