<svg width="136" height="136" viewBox="0 0 136 136" fill="none" xmlns="http://www.w3.org/2000/svg">
<circle cx="68" cy="68" r="68" fill="#144F7B"/>
<path d="M68.5 113C67.45 113 66.55 112.7 65.8 112.1C65.05 111.5 64.4875 110.712 64.1125 109.737C62.6875 105.537 60.8875 101.6 58.7125 97.925C56.6125 94.25 53.65 89.9375 49.825 84.9875C46 80.0375 42.8875 75.3125 40.4875 70.8125C38.1625 66.3125 37 60.875 37 54.5C37 45.725 40.0375 38.3 46.1125 32.225C52.2625 26.075 59.725 23 68.5 23C77.275 23 84.7 26.075 90.775 32.225C96.925 38.3 100 45.725 100 54.5C100 61.325 98.6875 67.025 96.0625 71.6C93.5125 76.1 90.55 80.5625 87.175 84.9875C83.125 90.3875 80.05 94.8875 77.95 98.4875C75.925 102.012 74.2375 105.762 72.8875 109.737C72.5125 110.787 71.9125 111.613 71.0875 112.213C70.3375 112.738 69.475 113 68.5 113ZM68.5 96.9125C69.775 94.3625 71.2 91.85 72.775 89.375C74.425 86.9 76.825 83.6 79.975 79.475C83.2 75.275 85.825 71.4125 87.85 67.8875C89.95 64.2875 91 59.825 91 54.5C91 48.275 88.7875 42.9875 84.3625 38.6375C80.0125 34.2125 74.725 32 68.5 32C62.275 32 56.95 34.2125 52.525 38.6375C48.175 42.9875 46 48.275 46 54.5C46 59.825 47.0125 64.2875 49.0375 67.8875C51.1375 71.4125 53.8 75.275 57.025 79.475C60.175 83.6 62.5375 86.9 64.1125 89.375C65.7625 91.85 67.225 94.3625 68.5 96.9125ZM68.5 65.75C71.65 65.75 74.3125 64.6625 76.4875 62.4875C78.6625 60.3125 79.75 57.65 79.75 54.5C79.75 51.35 78.6625 48.6875 76.4875 46.5125C74.3125 44.3375 71.65 43.25 68.5 43.25C65.35 43.25 62.6875 44.3375 60.5125 46.5125C58.3375 48.6875 57.25 51.35 57.25 54.5C57.25 57.65 58.3375 60.3125 60.5125 62.4875C62.6875 64.6625 65.35 65.75 68.5 65.75Z" fill="white"/>
</svg>
