<svg width="99" height="39" viewBox="0 0 99 39" fill="none" xmlns="http://www.w3.org/2000/svg">
<path d="M13.5831 17.3333V7.57171L10.0524 14.6794H7.97544L4.44467 7.57171V17.3333H0.660051V0.948634H4.76774L9.0139 9.51017L13.2831 0.948634H17.3677V17.3333H13.5831ZM23.0528 0.948634L26.5836 8.19479L30.1605 0.948634H34.2912L28.4528 11.7486V17.3333H24.6912V11.7025L18.9451 0.948634H23.0528ZM40.4614 0.487096H42.4922V14.2179C42.4922 14.8794 42.5845 15.2871 42.7691 15.4409C42.9537 15.5948 43.1768 15.6717 43.4384 15.6717C43.7614 15.6717 44.0691 15.6409 44.3614 15.5794C44.6537 15.5025 44.8999 15.4256 45.0999 15.3486L45.423 17.0102C45.0845 17.1486 44.6845 17.264 44.223 17.3563C43.7614 17.4486 43.3537 17.4948 42.9999 17.4948C42.2153 17.4948 41.5922 17.2717 41.1307 16.8256C40.6845 16.3794 40.4614 15.7563 40.4614 14.9563V0.487096ZM47.0183 17.3333V5.2871H49.0491V17.3333H47.0183ZM47.0183 3.02556V0.487096H49.0491V3.02556H47.0183ZM58.5676 16.7333C58.3984 16.8102 58.1676 16.9102 57.8753 17.0333C57.583 17.1563 57.2446 17.264 56.8599 17.3563C56.4753 17.4486 56.0676 17.4948 55.6369 17.4948C55.1446 17.4948 54.6907 17.4102 54.2753 17.2409C53.8599 17.0563 53.5292 16.7794 53.283 16.4102C53.0369 16.0256 52.9138 15.5486 52.9138 14.9794V6.8794H51.2753V5.2871H52.9138V1.27171H54.9446V5.2871H57.6446V6.8794H54.9446V14.3563C54.9753 14.7871 55.1215 15.1102 55.383 15.3256C55.6446 15.5256 55.9522 15.6256 56.3061 15.6256C56.7061 15.6256 57.0753 15.5563 57.4138 15.4179C57.7522 15.2794 57.9753 15.1794 58.083 15.1179L58.5676 16.7333ZM66.6806 16.7333C66.5114 16.8102 66.2806 16.9102 65.9883 17.0333C65.696 17.1563 65.3575 17.264 64.9729 17.3563C64.5883 17.4486 64.1806 17.4948 63.7498 17.4948C63.2575 17.4948 62.8037 17.4102 62.3883 17.2409C61.9729 17.0563 61.6421 16.7794 61.396 16.4102C61.1498 16.0256 61.0268 15.5486 61.0268 14.9794V6.8794H59.3883V5.2871H61.0268V1.27171H63.0575V5.2871H65.7575V6.8794H63.0575V14.3563C63.0883 14.7871 63.2345 15.1102 63.496 15.3256C63.7575 15.5256 64.0652 15.6256 64.4191 15.6256C64.8191 15.6256 65.1883 15.5563 65.5268 15.4179C65.8652 15.2794 66.0883 15.1794 66.196 15.1179L66.6806 16.7333ZM68.609 0.487096H70.6397V14.2179C70.6397 14.8794 70.7321 15.2871 70.9167 15.4409C71.1013 15.5948 71.3244 15.6717 71.5859 15.6717C71.909 15.6717 72.2167 15.6409 72.509 15.5794C72.8013 15.5025 73.0474 15.4256 73.2474 15.3486L73.5705 17.0102C73.2321 17.1486 72.8321 17.264 72.3705 17.3563C71.909 17.4486 71.5013 17.4948 71.1474 17.4948C70.3628 17.4948 69.7397 17.2717 69.2782 16.8256C68.8321 16.3794 68.609 15.7563 68.609 14.9563V0.487096ZM80.4967 17.564C79.589 17.564 78.7582 17.4025 78.0044 17.0794C77.2659 16.7409 76.6197 16.2871 76.0659 15.7179C75.5274 15.1333 75.1044 14.464 74.7967 13.7102C74.5044 12.9563 74.3582 12.1563 74.3582 11.3102C74.3582 10.1717 74.6197 9.13325 75.1428 8.19479C75.6659 7.25633 76.389 6.50248 77.312 5.93325C78.2505 5.36402 79.3197 5.0794 80.5197 5.0794C81.7351 5.0794 82.789 5.37171 83.6813 5.95633C84.589 6.52556 85.289 7.2794 85.7813 8.21787C86.289 9.14094 86.5428 10.1409 86.5428 11.2179C86.5428 11.3717 86.5351 11.5256 86.5197 11.6794C86.5197 11.8179 86.512 11.9256 86.4967 12.0025H76.5044C76.5659 12.7871 76.7813 13.4871 77.1505 14.1025C77.5351 14.7025 78.0274 15.1794 78.6274 15.5333C79.2274 15.8717 79.8736 16.0409 80.5659 16.0409C81.3044 16.0409 81.9967 15.8563 82.6428 15.4871C83.3044 15.1179 83.7582 14.6333 84.0044 14.0333L85.7582 14.5179C85.4967 15.1025 85.1044 15.6256 84.5813 16.0871C84.0736 16.5486 83.4659 16.9102 82.7582 17.1717C82.0659 17.4333 81.312 17.564 80.4967 17.564ZM76.4351 10.5948H84.6505C84.589 9.81017 84.3659 9.11787 83.9813 8.51787C83.5967 7.91787 83.1044 7.44863 82.5044 7.11017C81.9044 6.77171 81.2428 6.60248 80.5197 6.60248C79.812 6.60248 79.1582 6.77171 78.5582 7.11017C77.9582 7.44863 77.4659 7.91787 77.0813 8.51787C76.712 9.11787 76.4967 9.81017 76.4351 10.5948ZM12.1754 35.0102V38.3333H0.660051V21.9486H11.9677V25.2717H4.44467V28.4563H10.9062V31.5256H4.44467V35.0102H12.1754ZM24.3054 26.7486C24.2593 26.6717 24.0977 26.5563 23.8208 26.4025C23.5439 26.2333 23.1977 26.0563 22.7823 25.8717C22.367 25.6871 21.9131 25.5256 21.4208 25.3871C20.9285 25.2486 20.4362 25.1794 19.9439 25.1794C19.2977 25.1794 18.7977 25.2948 18.4439 25.5256C18.09 25.7409 17.9131 26.0794 17.9131 26.5409C17.9131 26.9102 18.0439 27.2025 18.3054 27.4179C18.5823 27.6333 18.9747 27.8256 19.4823 27.9948C19.99 28.1486 20.6131 28.3333 21.3516 28.5486C22.3977 28.8256 23.3054 29.164 24.0747 29.564C24.8439 29.9486 25.4285 30.4486 25.8285 31.064C26.2439 31.6794 26.4516 32.4948 26.4516 33.5102C26.4516 34.4333 26.2823 35.2179 25.9439 35.864C25.6054 36.4948 25.1439 37.0102 24.5593 37.4102C23.99 37.7948 23.3362 38.0794 22.5977 38.264C21.8593 38.4333 21.0977 38.5179 20.3131 38.5179C19.5131 38.5179 18.69 38.4409 17.8439 38.2871C17.0131 38.1179 16.2131 37.8871 15.4439 37.5948C14.6747 37.2871 13.967 36.9179 13.3208 36.4871L14.9823 33.1871C15.0439 33.264 15.2439 33.4102 15.5823 33.6256C15.9208 33.8256 16.3362 34.0409 16.8285 34.2717C17.3362 34.4871 17.8977 34.6794 18.5131 34.8486C19.1285 35.0179 19.7516 35.1025 20.3823 35.1025C21.0593 35.1025 21.5593 34.9948 21.8823 34.7794C22.2208 34.564 22.39 34.264 22.39 33.8794C22.39 33.464 22.2131 33.1409 21.8593 32.9102C21.5208 32.6794 21.0516 32.4717 20.4516 32.2871C19.867 32.1025 19.19 31.8948 18.4208 31.664C17.4208 31.3563 16.59 31.0102 15.9285 30.6256C15.2823 30.2409 14.7977 29.7717 14.4747 29.2179C14.167 28.664 14.0131 27.9717 14.0131 27.1409C14.0131 25.9871 14.2823 25.0179 14.8208 24.2333C15.3747 23.4332 16.1131 22.8332 17.0362 22.4333C17.9593 22.0179 18.967 21.8102 20.0593 21.8102C20.8285 21.8102 21.567 21.9025 22.2747 22.0871C22.9977 22.2717 23.667 22.5025 24.2823 22.7794C24.9131 23.0563 25.4747 23.3333 25.967 23.6102L24.3054 26.7486ZM41.157 25.2717H36.1724V38.3333H32.3878V25.2717H27.3801V21.9486H41.157V25.2717ZM49.8667 38.4717C48.636 38.4717 47.5206 38.2409 46.5206 37.7794C45.536 37.3025 44.6821 36.6717 43.959 35.8871C43.2513 35.0871 42.7052 34.1948 42.3206 33.2102C41.936 32.2102 41.7436 31.1794 41.7436 30.1179C41.7436 29.0256 41.9436 27.9871 42.3436 27.0025C42.759 26.0179 43.3283 25.1409 44.0513 24.3717C44.7898 23.5871 45.659 22.9717 46.659 22.5256C47.659 22.0794 48.7513 21.8563 49.936 21.8563C51.1513 21.8563 52.2513 22.0948 53.236 22.5717C54.236 23.0332 55.0898 23.664 55.7975 24.464C56.5206 25.264 57.0744 26.164 57.459 27.164C57.8437 28.1486 58.036 29.1563 58.036 30.1871C58.036 31.2794 57.836 32.3179 57.436 33.3025C57.036 34.2871 56.4667 35.1717 55.7283 35.9563C54.9898 36.7256 54.1206 37.3409 53.1206 37.8025C52.136 38.2486 51.0513 38.4717 49.8667 38.4717ZM45.5975 30.164C45.5975 30.7948 45.6898 31.4102 45.8744 32.0102C46.059 32.5948 46.3283 33.1179 46.6821 33.5794C47.0513 34.0409 47.5052 34.4102 48.0436 34.6871C48.5821 34.964 49.1975 35.1025 49.8898 35.1025C50.6129 35.1025 51.2436 34.964 51.7821 34.6871C52.3206 34.3948 52.7667 34.0102 53.1206 33.5333C53.4744 33.0563 53.736 32.5256 53.9052 31.9409C54.0898 31.3409 54.1821 30.7333 54.1821 30.1179C54.1821 29.4871 54.0898 28.8794 53.9052 28.2948C53.7206 27.7102 53.4437 27.1871 53.0744 26.7256C52.7052 26.2486 52.2513 25.8794 51.7129 25.6179C51.1744 25.3563 50.5667 25.2256 49.8898 25.2256C49.1667 25.2256 48.536 25.364 47.9975 25.6409C47.4744 25.9179 47.0283 26.2948 46.659 26.7717C46.3052 27.2333 46.036 27.764 45.8513 28.364C45.6821 28.9486 45.5975 29.5486 45.5975 30.164ZM64.0075 28.964V38.3333H60.2229V21.9486H63.2229L70.8152 31.5948V21.9486H74.5998V38.3333H71.5075L64.0075 28.964ZM77.7334 38.3333V21.9486H81.518V38.3333H77.7334ZM88.7827 21.9486H92.8673L98.4981 38.3333H94.6212L93.352 34.664H88.2519L87.0058 38.3333H83.1289L88.7827 21.9486ZM92.7289 32.0563L90.8135 25.7563L88.8519 32.0563H92.7289Z" fill="white"/>
</svg>
