<svg width="150" height="59" viewBox="0 0 150 59" fill="none" xmlns="http://www.w3.org/2000/svg">
<path d="M19.7385 26V11.3577L14.4423 22.0192H11.3269L6.03077 11.3577V26H0.353846V1.42307H6.51539L12.8846 14.2654L19.2885 1.42307H25.4154V26H19.7385ZM33.9429 1.42307L39.2391 12.2923L44.6045 1.42307H50.8006L42.0429 17.6231V26H36.4006V17.5538L27.7814 1.42307H33.9429ZM60.0559 0.730767H63.1021V21.3269C63.1021 22.3192 63.2405 22.9308 63.5175 23.1615C63.7944 23.3923 64.129 23.5077 64.5213 23.5077C65.0059 23.5077 65.4675 23.4615 65.9059 23.3692C66.3444 23.2538 66.7136 23.1385 67.0136 23.0231L67.4982 25.5154C66.9905 25.7231 66.3905 25.8962 65.6982 26.0346C65.0059 26.1731 64.3944 26.2423 63.8636 26.2423C62.6867 26.2423 61.7521 25.9077 61.0598 25.2385C60.3905 24.5692 60.0559 23.6346 60.0559 22.4346V0.730767ZM69.8913 26V7.93077H72.9374V26H69.8913ZM69.8913 4.53846V0.730767H72.9374V4.53846H69.8913ZM87.2152 25.1C86.9614 25.2154 86.6152 25.3654 86.1767 25.55C85.7383 25.7346 85.2306 25.8962 84.6537 26.0346C84.0767 26.1731 83.4652 26.2423 82.8191 26.2423C82.0806 26.2423 81.3998 26.1154 80.7767 25.8615C80.1537 25.5846 79.6575 25.1692 79.2883 24.6154C78.9191 24.0385 78.7344 23.3231 78.7344 22.4692V10.3192H76.2767V7.93077H78.7344V1.90769H81.7806V7.93077H85.8306V10.3192H81.7806V21.5346C81.8267 22.1808 82.046 22.6654 82.4383 22.9885C82.8306 23.2885 83.2921 23.4385 83.8229 23.4385C84.4229 23.4385 84.9767 23.3346 85.4844 23.1269C85.9921 22.9192 86.3267 22.7692 86.4883 22.6769L87.2152 25.1ZM99.3847 25.1C99.1308 25.2154 98.7847 25.3654 98.3462 25.55C97.9078 25.7346 97.4001 25.8962 96.8231 26.0346C96.2462 26.1731 95.6347 26.2423 94.9885 26.2423C94.2501 26.2423 93.5693 26.1154 92.9462 25.8615C92.3231 25.5846 91.827 25.1692 91.4578 24.6154C91.0885 24.0385 90.9039 23.3231 90.9039 22.4692V10.3192H88.4462V7.93077H90.9039V1.90769H93.9501V7.93077H98.0001V10.3192H93.9501V21.5346C93.9962 22.1808 94.2154 22.6654 94.6078 22.9885C95.0001 23.2885 95.4616 23.4385 95.9924 23.4385C96.5924 23.4385 97.1462 23.3346 97.6539 23.1269C98.1616 22.9192 98.4962 22.7692 98.6578 22.6769L99.3847 25.1ZM102.277 0.730767H105.323V21.3269C105.323 22.3192 105.462 22.9308 105.739 23.1615C106.016 23.3923 106.35 23.5077 106.743 23.5077C107.227 23.5077 107.689 23.4615 108.127 23.3692C108.566 23.2538 108.935 23.1385 109.235 23.0231L109.72 25.5154C109.212 25.7231 108.612 25.8962 107.92 26.0346C107.227 26.1731 106.616 26.2423 106.085 26.2423C104.908 26.2423 103.973 25.9077 103.281 25.2385C102.612 24.5692 102.277 23.6346 102.277 22.4346V0.730767ZM120.109 26.3462C118.747 26.3462 117.501 26.1038 116.37 25.6192C115.263 25.1115 114.293 24.4308 113.463 23.5769C112.655 22.7 112.02 21.6962 111.559 20.5654C111.12 19.4346 110.901 18.2346 110.901 16.9654C110.901 15.2577 111.293 13.7 112.078 12.2923C112.863 10.8846 113.947 9.75384 115.332 8.9C116.74 8.04615 118.343 7.61923 120.143 7.61923C121.966 7.61923 123.547 8.05769 124.886 8.93461C126.247 9.78846 127.297 10.9192 128.036 12.3269C128.797 13.7115 129.178 15.2115 129.178 16.8269C129.178 17.0577 129.166 17.2885 129.143 17.5192C129.143 17.7269 129.132 17.8885 129.109 18.0038H114.12C114.213 19.1808 114.536 20.2308 115.09 21.1538C115.666 22.0538 116.405 22.7692 117.305 23.3C118.205 23.8077 119.174 24.0615 120.213 24.0615C121.32 24.0615 122.359 23.7846 123.328 23.2308C124.32 22.6769 125.001 21.95 125.37 21.05L128.001 21.7769C127.609 22.6538 127.02 23.4385 126.236 24.1308C125.474 24.8231 124.563 25.3654 123.501 25.7577C122.463 26.15 121.332 26.3462 120.109 26.3462ZM114.016 15.8923H126.34C126.247 14.7154 125.913 13.6769 125.336 12.7769C124.759 11.8769 124.02 11.1731 123.12 10.6654C122.22 10.1577 121.228 9.90384 120.143 9.90384C119.082 9.90384 118.101 10.1577 117.201 10.6654C116.301 11.1731 115.563 11.8769 114.986 12.7769C114.432 13.6769 114.109 14.7154 114.016 15.8923ZM0.353846 58V33.4231H6.03077V58H0.353846ZM10.7317 58V33.4231H19.9048C22.6048 33.4231 24.8548 33.9769 26.6548 35.0846C28.4779 36.1692 29.8509 37.6462 30.774 39.5154C31.6971 41.3615 32.1586 43.4154 32.1586 45.6769C32.1586 48.1692 31.6509 50.3385 30.6355 52.1846C29.6202 54.0308 28.1894 55.4615 26.3432 56.4769C24.5202 57.4923 22.374 58 19.9048 58H10.7317ZM26.3779 45.6769C26.3779 44.2462 26.124 42.9885 25.6163 41.9038C25.1086 40.7962 24.3702 39.9423 23.4009 39.3423C22.4317 38.7192 21.2663 38.4077 19.9048 38.4077H16.4086V53.0154H19.9048C21.2894 53.0154 22.4548 52.7038 23.4009 52.0808C24.3702 51.4346 25.1086 50.5577 25.6163 49.45C26.124 48.3192 26.3779 47.0615 26.3779 45.6769ZM40.7259 33.4231H46.8529L55.299 58H49.4836L47.5798 52.4962H39.9298L38.0605 58H32.2452L40.7259 33.4231ZM46.6452 48.5846L43.7721 39.1346L40.8298 48.5846H46.6452ZM57.2348 50.9731V45.9885H67.8963V50.9731H57.2348ZM74.6374 33.4231L80.4182 51.3538L86.1297 33.4231H92.1182L83.1874 58H77.6143L68.6143 33.4231H74.6374ZM94.3968 58V33.4231H100.074V58H94.3968ZM104.775 58V33.4231H115.852C117.005 33.4231 118.067 33.6654 119.036 34.15C120.029 34.6115 120.882 35.2462 121.598 36.0538C122.313 36.8385 122.867 37.7269 123.259 38.7192C123.675 39.7115 123.882 40.7154 123.882 41.7308C123.882 42.7462 123.721 43.7154 123.398 44.6385C123.075 45.5385 122.613 46.3577 122.013 47.0962C121.413 47.8115 120.698 48.4 119.867 48.8615L125.267 58H119.002L114.294 50.0731H110.452V58H104.775ZM110.452 45.1231H115.644C116.105 45.1231 116.509 44.9846 116.855 44.7077C117.225 44.4077 117.525 44.0038 117.755 43.4962C117.986 42.9885 118.102 42.4 118.102 41.7308C118.102 41.0615 117.963 40.4846 117.686 40C117.432 39.4923 117.109 39.1 116.717 38.8231C116.325 38.5462 115.909 38.4077 115.471 38.4077H110.452V45.1231ZM138.387 58.2077C136.425 58.2077 134.752 57.8846 133.368 57.2385C131.983 56.5692 130.852 55.6692 129.975 54.5385C129.121 53.3846 128.487 52.0808 128.071 50.6269C127.679 49.15 127.483 47.6038 127.483 45.9885V33.4231H133.16V45.9885C133.16 46.9115 133.252 47.8115 133.437 48.6885C133.621 49.5423 133.921 50.3038 134.337 50.9731C134.752 51.6423 135.283 52.1731 135.929 52.5654C136.598 52.9577 137.418 53.1538 138.387 53.1538C139.379 53.1538 140.21 52.9577 140.879 52.5654C141.548 52.15 142.079 51.6077 142.471 50.9385C142.864 50.2462 143.152 49.4731 143.337 48.6192C143.521 47.7654 143.614 46.8885 143.614 45.9885V33.4231H149.291V45.9885C149.291 47.6962 149.071 49.2885 148.633 50.7654C148.218 52.2423 147.571 53.5462 146.694 54.6769C145.818 55.7846 144.687 56.65 143.302 57.2731C141.941 57.8962 140.302 58.2077 138.387 58.2077Z" fill="#212121"/>
</svg>
