<svg width="148" height="59" viewBox="0 0 148 59" fill="none" xmlns="http://www.w3.org/2000/svg">
<path d="M19.7385 26V11.3577L14.4423 22.0192H11.3269L6.03077 11.3577V26H0.353846V1.42307H6.51539L12.8846 14.2654L19.2885 1.42307H25.4154V26H19.7385ZM33.9429 1.42307L39.2391 12.2923L44.6045 1.42307H50.8006L42.0429 17.6231V26H36.4006V17.5538L27.7814 1.42307H33.9429ZM60.0559 0.730767H63.1021V21.3269C63.1021 22.3192 63.2405 22.9308 63.5175 23.1615C63.7944 23.3923 64.129 23.5077 64.5213 23.5077C65.0059 23.5077 65.4675 23.4615 65.9059 23.3692C66.3444 23.2538 66.7136 23.1385 67.0136 23.0231L67.4982 25.5154C66.9905 25.7231 66.3905 25.8962 65.6982 26.0346C65.0059 26.1731 64.3944 26.2423 63.8636 26.2423C62.6867 26.2423 61.7521 25.9077 61.0598 25.2385C60.3905 24.5692 60.0559 23.6346 60.0559 22.4346V0.730767ZM69.8913 26V7.93077H72.9374V26H69.8913ZM69.8913 4.53846V0.730767H72.9374V4.53846H69.8913ZM87.2152 25.1C86.9614 25.2154 86.6152 25.3654 86.1767 25.55C85.7383 25.7346 85.2306 25.8962 84.6537 26.0346C84.0767 26.1731 83.4652 26.2423 82.8191 26.2423C82.0806 26.2423 81.3998 26.1154 80.7767 25.8615C80.1537 25.5846 79.6575 25.1692 79.2883 24.6154C78.9191 24.0385 78.7344 23.3231 78.7344 22.4692V10.3192H76.2767V7.93077H78.7344V1.90769H81.7806V7.93077H85.8306V10.3192H81.7806V21.5346C81.8267 22.1808 82.046 22.6654 82.4383 22.9885C82.8306 23.2885 83.2921 23.4385 83.8229 23.4385C84.4229 23.4385 84.9767 23.3346 85.4844 23.1269C85.9921 22.9192 86.3267 22.7692 86.4883 22.6769L87.2152 25.1ZM99.3847 25.1C99.1308 25.2154 98.7847 25.3654 98.3462 25.55C97.9078 25.7346 97.4001 25.8962 96.8231 26.0346C96.2462 26.1731 95.6347 26.2423 94.9885 26.2423C94.2501 26.2423 93.5693 26.1154 92.9462 25.8615C92.3231 25.5846 91.827 25.1692 91.4578 24.6154C91.0885 24.0385 90.9039 23.3231 90.9039 22.4692V10.3192H88.4462V7.93077H90.9039V1.90769H93.9501V7.93077H98.0001V10.3192H93.9501V21.5346C93.9962 22.1808 94.2154 22.6654 94.6078 22.9885C95.0001 23.2885 95.4616 23.4385 95.9924 23.4385C96.5924 23.4385 97.1462 23.3346 97.6539 23.1269C98.1616 22.9192 98.4962 22.7692 98.6578 22.6769L99.3847 25.1ZM102.277 0.730767H105.323V21.3269C105.323 22.3192 105.462 22.9308 105.739 23.1615C106.016 23.3923 106.35 23.5077 106.743 23.5077C107.227 23.5077 107.689 23.4615 108.127 23.3692C108.566 23.2538 108.935 23.1385 109.235 23.0231L109.72 25.5154C109.212 25.7231 108.612 25.8962 107.92 26.0346C107.227 26.1731 106.616 26.2423 106.085 26.2423C104.908 26.2423 103.973 25.9077 103.281 25.2385C102.612 24.5692 102.277 23.6346 102.277 22.4346V0.730767ZM120.109 26.3462C118.747 26.3462 117.501 26.1038 116.37 25.6192C115.263 25.1115 114.293 24.4308 113.463 23.5769C112.655 22.7 112.02 21.6962 111.559 20.5654C111.12 19.4346 110.901 18.2346 110.901 16.9654C110.901 15.2577 111.293 13.7 112.078 12.2923C112.863 10.8846 113.947 9.75384 115.332 8.9C116.74 8.04615 118.343 7.61923 120.143 7.61923C121.966 7.61923 123.547 8.05769 124.886 8.93461C126.247 9.78846 127.297 10.9192 128.036 12.3269C128.797 13.7115 129.178 15.2115 129.178 16.8269C129.178 17.0577 129.166 17.2885 129.143 17.5192C129.143 17.7269 129.132 17.8885 129.109 18.0038H114.12C114.213 19.1808 114.536 20.2308 115.09 21.1538C115.666 22.0538 116.405 22.7692 117.305 23.3C118.205 23.8077 119.174 24.0615 120.213 24.0615C121.32 24.0615 122.359 23.7846 123.328 23.2308C124.32 22.6769 125.001 21.95 125.37 21.05L128.001 21.7769C127.609 22.6538 127.02 23.4385 126.236 24.1308C125.474 24.8231 124.563 25.3654 123.501 25.7577C122.463 26.15 121.332 26.3462 120.109 26.3462ZM114.016 15.8923H126.34C126.247 14.7154 125.913 13.6769 125.336 12.7769C124.759 11.8769 124.02 11.1731 123.12 10.6654C122.22 10.1577 121.228 9.90384 120.143 9.90384C119.082 9.90384 118.101 10.1577 117.201 10.6654C116.301 11.1731 115.563 11.8769 114.986 12.7769C114.432 13.6769 114.109 14.7154 114.016 15.8923ZM17.6269 53.0154V58H0.353846V33.4231H17.3154V38.4077H6.03077V43.1846H15.7231V47.7885H6.03077V53.0154H17.6269ZM35.8219 40.6231C35.7527 40.5077 35.5104 40.3346 35.095 40.1038C34.6796 39.85 34.1604 39.5846 33.5373 39.3077C32.9142 39.0308 32.2334 38.7885 31.495 38.5808C30.7565 38.3731 30.0181 38.2692 29.2796 38.2692C28.3104 38.2692 27.5604 38.4423 27.0296 38.7885C26.4988 39.1115 26.2334 39.6192 26.2334 40.3115C26.2334 40.8654 26.4296 41.3038 26.8219 41.6269C27.2373 41.95 27.8258 42.2385 28.5873 42.4923C29.3488 42.7231 30.2834 43 31.3911 43.3231C32.9604 43.7385 34.3219 44.2462 35.4758 44.8462C36.6296 45.4231 37.5065 46.1731 38.1065 47.0962C38.7296 48.0192 39.0411 49.2423 39.0411 50.7654C39.0411 52.15 38.7873 53.3269 38.2796 54.2962C37.7719 55.2423 37.0796 56.0154 36.2027 56.6154C35.3488 57.1923 34.3681 57.6192 33.2604 57.8962C32.1527 58.15 31.0104 58.2769 29.8334 58.2769C28.6334 58.2769 27.3988 58.1615 26.1296 57.9308C24.8834 57.6769 23.6834 57.3308 22.5296 56.8923C21.3758 56.4308 20.3142 55.8769 19.345 55.2308L21.8373 50.2808C21.9296 50.3962 22.2296 50.6154 22.7373 50.9385C23.245 51.2385 23.8681 51.5615 24.6065 51.9077C25.3681 52.2308 26.2104 52.5192 27.1334 52.7731C28.0565 53.0269 28.9911 53.1538 29.9373 53.1538C30.9527 53.1538 31.7027 52.9923 32.1873 52.6692C32.695 52.3462 32.9488 51.8962 32.9488 51.3192C32.9488 50.6962 32.6834 50.2115 32.1527 49.8654C31.645 49.5192 30.9411 49.2077 30.0411 48.9308C29.1642 48.6538 28.1488 48.3423 26.995 47.9962C25.495 47.5346 24.2488 47.0154 23.2565 46.4385C22.2873 45.8615 21.5604 45.1577 21.0758 44.3269C20.6142 43.4962 20.3834 42.4577 20.3834 41.2115C20.3834 39.4808 20.7873 38.0269 21.595 36.85C22.4258 35.65 23.5334 34.75 24.9181 34.15C26.3027 33.5269 27.8142 33.2154 29.4527 33.2154C30.6065 33.2154 31.7142 33.3538 32.7758 33.6308C33.8604 33.9077 34.8642 34.2538 35.7873 34.6692C36.7334 35.0846 37.5758 35.5 38.3142 35.9154L35.8219 40.6231ZM61.0993 38.4077H53.6223V58H47.9454V38.4077H40.4339V33.4231H61.0993V38.4077ZM74.1639 58.2077C72.3177 58.2077 70.6446 57.8615 69.1446 57.1692C67.6677 56.4538 66.3869 55.5077 65.3023 54.3308C64.2408 53.1308 63.4215 51.7923 62.8446 50.3154C62.2677 48.8154 61.9792 47.2692 61.9792 45.6769C61.9792 44.0385 62.2792 42.4808 62.8792 41.0038C63.5023 39.5269 64.3562 38.2115 65.4408 37.0577C66.5485 35.8808 67.8523 34.9577 69.3523 34.2885C70.8523 33.6192 72.4908 33.2846 74.2677 33.2846C76.0908 33.2846 77.7408 33.6423 79.2177 34.3577C80.7177 35.05 81.9985 35.9962 83.06 37.1962C84.1446 38.3962 84.9754 39.7462 85.5523 41.2462C86.1292 42.7231 86.4177 44.2346 86.4177 45.7808C86.4177 47.4192 86.1177 48.9769 85.5177 50.4538C84.9177 51.9308 84.0639 53.2577 82.9562 54.4346C81.8485 55.5885 80.5446 56.5115 79.0446 57.2038C77.5677 57.8731 75.9408 58.2077 74.1639 58.2077ZM67.76 45.7462C67.76 46.6923 67.8985 47.6154 68.1754 48.5154C68.4523 49.3923 68.8562 50.1769 69.3869 50.8692C69.9408 51.5615 70.6215 52.1154 71.4292 52.5308C72.2369 52.9462 73.16 53.1538 74.1985 53.1538C75.2831 53.1538 76.2292 52.9462 77.0369 52.5308C77.8446 52.0923 78.5139 51.5154 79.0446 50.8C79.5754 50.0846 79.9677 49.2885 80.2215 48.4115C80.4985 47.5115 80.6369 46.6 80.6369 45.6769C80.6369 44.7308 80.4985 43.8192 80.2215 42.9423C79.9446 42.0654 79.5292 41.2808 78.9754 40.5885C78.4215 39.8731 77.7408 39.3192 76.9331 38.9269C76.1254 38.5346 75.2139 38.3385 74.1985 38.3385C73.1139 38.3385 72.1677 38.5462 71.36 38.9615C70.5754 39.3769 69.9062 39.9423 69.3523 40.6577C68.8215 41.35 68.4177 42.1462 68.1408 43.0462C67.8869 43.9231 67.76 44.8231 67.76 45.7462ZM95.375 43.9462V58H89.6981V33.4231H94.1981L105.587 47.8923V33.4231H111.263V58H106.625L95.375 43.9462ZM115.964 58V33.4231H121.641V58H115.964ZM132.538 33.4231H138.665L147.111 58H141.296L139.392 52.4962H131.742L129.872 58H124.057L132.538 33.4231ZM138.457 48.5846L135.584 39.1346L132.642 48.5846H138.457Z" fill="#212121"/>
</svg>
