<svg width="31" height="30" viewBox="0 0 31 30" fill="none" xmlns="http://www.w3.org/2000/svg">
<path d="M15.4998 29.5833C7.44546 29.5833 0.916504 23.0543 0.916504 15C0.916504 6.94558 7.44546 0.416626 15.4998 0.416626C23.5542 0.416626 30.0832 6.94558 30.0832 15C30.0832 23.0543 23.5542 29.5833 15.4998 29.5833ZM15.4998 26.6666C18.594 26.6666 21.5615 25.4375 23.7494 23.2495C25.9373 21.0616 27.1665 18.0942 27.1665 15C27.1665 11.9058 25.9373 8.9383 23.7494 6.75038C21.5615 4.56246 18.594 3.33329 15.4998 3.33329C12.4056 3.33329 9.43818 4.56246 7.25026 6.75038C5.06233 8.9383 3.83317 11.9058 3.83317 15C3.83317 18.0942 5.06233 21.0616 7.25026 23.2495C9.43818 25.4375 12.4056 26.6666 15.4998 26.6666ZM15.4998 7.70829C15.8866 7.70829 16.2575 7.86194 16.531 8.13543C16.8045 8.40892 16.9582 8.77985 16.9582 9.16663V16.4583C16.9582 16.8451 16.8045 17.216 16.531 17.4895C16.2575 17.763 15.8866 17.9166 15.4998 17.9166C15.1131 17.9166 14.7421 17.763 14.4686 17.4895C14.1951 17.216 14.0415 16.8451 14.0415 16.4583V9.16663C14.0415 8.77985 14.1951 8.40892 14.4686 8.13543C14.7421 7.86194 15.1131 7.70829 15.4998 7.70829ZM15.4998 22.2916C15.1131 22.2916 14.7421 22.138 14.4686 21.8645C14.1951 21.591 14.0415 21.2201 14.0415 20.8333C14.0415 20.4465 14.1951 20.0756 14.4686 19.8021C14.7421 19.5286 15.1131 19.375 15.4998 19.375C15.8866 19.375 16.2575 19.5286 16.531 19.8021C16.8045 20.0756 16.9582 20.4465 16.9582 20.8333C16.9582 21.2201 16.8045 21.591 16.531 21.8645C16.2575 22.138 15.8866 22.2916 15.4998 22.2916Z" fill="white"/>
</svg>
