<svg width="15" height="16" viewBox="0 0 15 16" fill="none" xmlns="http://www.w3.org/2000/svg">
<path d="M0 14.4752V10.8943C0 10.5895 0.08125 10.3132 0.24375 10.0653C0.40625 9.81744 0.625 9.63026 0.9 9.50379L3 8.5514V7.0276C3 6.73553 3.075 6.47217 3.225 6.2375C3.375 6.00283 3.575 5.8154 3.825 5.67521L6.75 4.1895V3.04664H6C5.7875 3.04664 5.6095 2.9735 5.466 2.82722C5.3225 2.68093 5.2505 2.5001 5.25 2.28474C5.2495 2.06937 5.3215 1.88855 5.466 1.74226C5.6105 1.59598 5.7885 1.52283 6 1.52283H6.75V0.760931C6.75 0.545058 6.822 0.364232 6.966 0.218455C7.11 0.0726768 7.288 -0.000465999 7.5 -0.000973935C7.712 -0.00148187 7.89025 0.071661 8.03475 0.218455C8.17925 0.365248 8.251 0.546073 8.25 0.760931V1.52283H9C9.2125 1.52283 9.39075 1.59598 9.53475 1.74226C9.67875 1.88855 9.7505 2.06937 9.75 2.28474C9.7495 2.5001 9.6775 2.68118 9.534 2.82798C9.3905 2.97477 9.2125 3.04766 9 3.04664H8.25V4.1895L11.175 5.67521C11.425 5.8149 11.625 6.00233 11.775 6.2375C11.925 6.47267 12 6.73604 12 7.0276V8.5514L14.1 9.50379C14.375 9.63077 14.5937 9.8182 14.7562 10.0661C14.9187 10.3139 15 10.59 15 10.8943V14.4752C15 14.8943 14.8533 15.2531 14.5597 15.5518C14.2662 15.8504 13.913 15.9995 13.5 15.999H9.75C9.5375 15.999 9.3595 15.9259 9.216 15.7796C9.0725 15.6333 9.0005 15.4525 9 15.2371V13.7133C9 13.2943 8.85325 12.9357 8.55975 12.6375C8.26625 12.3393 7.913 12.19 7.5 12.1895C7.087 12.189 6.734 12.3383 6.441 12.6375C6.148 12.9367 6.001 13.2953 6 13.7133V15.2371C6 15.453 5.928 15.6341 5.784 15.7804C5.64 15.9266 5.462 15.9995 5.25 15.999H1.5C1.0875 15.999 0.7345 15.8499 0.441 15.5518C0.1475 15.2536 0.0005 14.8948 0 14.4752ZM7.5 9.52283C7.8125 9.52283 8.07825 9.41185 8.29725 9.18988C8.51625 8.96791 8.6255 8.69794 8.625 8.37998C8.6245 8.06201 8.51525 7.79229 8.29725 7.57083C8.07925 7.34937 7.8135 7.23813 7.5 7.23712C7.1865 7.2361 6.921 7.34734 6.7035 7.57083C6.486 7.79432 6.3765 8.06404 6.375 8.37998C6.3735 8.69591 6.483 8.96588 6.7035 9.18988C6.924 9.41388 7.1895 9.52486 7.5 9.52283Z" fill="white"/>
</svg>
