<svg width="12" height="16" viewBox="0 0 12 16" fill="none" xmlns="http://www.w3.org/2000/svg">
<path d="M5.64687 0.146289C5.84062 -0.0474609 6.15938 -0.0474609 6.35313 0.146289L8.85312 2.64629C8.93125 2.72441 8.98125 2.82754 8.99687 2.93691L10.2531 12.9994H1.74688L3.00312 2.93691C3.01562 2.82754 3.06562 2.72441 3.14687 2.64629L5.64687 0.146289ZM4.75 8.49941C4.33437 8.49941 4 8.83379 4 9.24941C4 9.66504 4.33437 9.99941 4.75 9.99941H7.25C7.66563 9.99941 8 9.66504 8 9.24941C8 8.83379 7.66563 8.49941 7.25 8.49941H4.75ZM1 13.9994H11C11.5531 13.9994 12 14.4463 12 14.9994C12 15.5525 11.5531 15.9994 11 15.9994H1C0.446875 15.9994 0 15.5525 0 14.9994C0 14.4463 0.446875 13.9994 1 13.9994Z" fill="white"/>
</svg>
