<svg width="14" height="16" viewBox="0 0 14 16" fill="none" xmlns="http://www.w3.org/2000/svg">
<path d="M11.2837 7.68729H11.3529C12.0529 7.68729 12.459 6.93083 12.0615 6.3822L7.67147 0.355482C7.59183 0.24573 7.48581 0.156099 7.36244 0.0942088C7.23907 0.0323188 7.10198 0 6.96284 0C6.8237 0 6.68661 0.0323188 6.56324 0.0942088C6.43987 0.156099 6.33385 0.24573 6.25421 0.355482L1.89875 6.3822C1.50123 6.93083 1.91604 7.68729 2.61602 7.68729H2.65059L0.144468 11.3948C-0.23577 11.9434 0.179035 12.6749 0.870378 12.6749H5.26041V14.3541C5.26041 15.2602 6.02953 16 6.97148 16C7.91344 16 8.68256 15.2602 8.68256 14.3541V12.6749H13.1331C13.8244 12.6749 14.2392 11.9351 13.8503 11.3864L11.2837 7.68729Z" fill="black"/>
</svg>
