<svg width="12" height="16" viewBox="0 0 12 16" fill="none" xmlns="http://www.w3.org/2000/svg">
<path d="M2.4 5.6V0.800002C2.4 0.573336 2.4768 0.383469 2.6304 0.230403C2.784 0.0773362 2.97387 0.000536092 3.2 2.75862e-06C3.42613 -0.000530575 3.61627 0.0762695 3.7704 0.230403C3.92453 0.384536 4.00107 0.574403 4 0.800002V5.6H4.8V0.800002C4.8 0.573336 4.8768 0.383469 5.0304 0.230403C5.184 0.0773362 5.37387 0.000536092 5.6 2.75862e-06C5.82613 -0.000530575 6.01627 0.0762695 6.1704 0.230403C6.32453 0.384536 6.40107 0.574403 6.4 0.800002V5.6C6.4 6.34667 6.17013 7 5.7104 7.56C5.25067 8.12 4.68053 8.49333 4 8.68V15.2C4 15.4267 3.9232 15.6168 3.7696 15.7704C3.616 15.924 3.42613 16.0005 3.2 16C2.97387 15.9995 2.784 15.9227 2.6304 15.7696C2.4768 15.6165 2.4 15.4267 2.4 15.2V8.68C1.72 8.49333 1.15013 8.12 0.6904 7.56C0.230667 7 0.000533333 6.34667 0 5.6V0.800002C0 0.573336 0.0768001 0.383469 0.2304 0.230403C0.384 0.0773362 0.573867 0.000536092 0.8 2.75862e-06C1.02613 -0.000530575 1.21627 0.0762695 1.3704 0.230403C1.52453 0.384536 1.60107 0.574403 1.6 0.800002V5.6H2.4ZM10.4 9.6H8.8C8.57333 9.6 8.38347 9.5232 8.2304 9.3696C8.07733 9.216 8.00053 9.02613 8 8.8V4C8 3.06667 8.34347 2.16667 9.0304 1.3C9.71733 0.433336 10.4272 2.75862e-06 11.16 2.75862e-06C11.4 2.75862e-06 11.6 0.093336 11.76 0.280003C11.92 0.466669 12 0.686669 12 0.940002V15.2C12 15.4267 11.9232 15.6168 11.7696 15.7704C11.616 15.924 11.4261 16.0005 11.2 16C10.9739 15.9995 10.784 15.9227 10.6304 15.7696C10.4768 15.6165 10.4 15.4267 10.4 15.2V9.6Z" fill="black"/>
</svg>
