<svg width="16" height="16" viewBox="0 0 16 16" fill="none" xmlns="http://www.w3.org/2000/svg">
<path d="M2.708 2C3.91177 0.935338 5.40927 0.259442 7.004 0.0610031C7.066 0.491003 7.144 0.970003 7.244 1.469C7.424 2.369 7.674 3.349 8.02 4.246C8.296 4.965 8.643 5.655 9.082 6.211L8 7.293L2.708 2ZM2 2.709C0.934975 3.91264 0.258725 5.41015 0.0600029 7.005C0.490003 7.067 0.968003 7.145 1.467 7.245C2.367 7.425 3.347 7.675 4.244 8.021C4.963 8.297 5.654 8.644 6.209 9.083L7.293 8L2 2.709ZM5.496 9.797C5.066 9.477 4.514 9.196 3.886 8.954C3.059 8.636 2.139 8.4 1.271 8.226C0.849308 8.14142 0.4255 8.06772 2.94263e-06 8.005C-0.0016697 9.9525 0.709778 11.8332 2 13.292L5.496 9.797ZM2.706 14L6.203 10.504C6.523 10.934 6.803 11.486 7.045 12.114C7.363 12.94 7.599 13.861 7.773 14.728C7.863 15.176 7.935 15.608 7.993 16.001C6.04585 16.0024 4.16553 15.291 2.707 14.001M6.917 9.791L8 8.708L13.292 14C12.0884 15.065 10.5909 15.7413 8.996 15.94C8.933 15.51 8.854 15.031 8.755 14.532C8.575 13.632 8.325 12.652 7.98 11.755C7.703 11.037 7.357 10.347 6.917 9.791ZM14 13.293C15.065 12.0894 15.7413 10.5919 15.94 8.997C15.51 8.935 15.031 8.857 14.532 8.757C13.632 8.577 12.652 8.327 11.755 7.982C11.037 7.705 10.346 7.359 9.79 6.919L8.707 8L14 13.293ZM10.503 6.206C10.933 6.526 11.486 6.806 12.113 7.048C12.94 7.366 13.861 7.602 14.728 7.776C15.176 7.866 15.608 7.938 16.001 7.996C16.0027 6.04851 15.2912 4.16779 14.001 2.709L10.503 6.206ZM13.292 2C11.8332 0.709778 9.9525 -0.0016697 8.005 2.94263e-06C8.063 0.393003 8.135 0.825003 8.225 1.273C8.399 2.141 8.635 3.061 8.953 3.887C9.195 4.515 9.475 5.067 9.795 5.497L13.292 2Z" fill="white"/>
</svg>
