<svg width="14" height="16" viewBox="0 0 14 16" fill="none" xmlns="http://www.w3.org/2000/svg">
<path d="M3.88892 2C3.88892 1.46957 4.09379 0.960859 4.45844 0.585786C4.8231 0.210714 5.31768 0 5.83339 0C6.34909 0 6.84367 0.210714 7.20833 0.585786C7.57298 0.960859 7.77785 1.46957 7.77785 2V3.2H10.406C10.8698 3.20021 11.3147 3.38983 11.6427 3.7272L13.829 5.9752C13.8832 6.03092 13.9262 6.09708 13.9556 6.1699C13.9849 6.24272 14 6.32078 14 6.3996C14 6.47843 13.9849 6.55648 13.9556 6.6293C13.9262 6.70212 13.8832 6.76828 13.829 6.824L11.6434 9.0728C11.4809 9.23994 11.288 9.37253 11.0757 9.46299C10.8634 9.55345 10.6358 9.6 10.406 9.6H7.77785V15C7.77785 15.552 7.34229 16 6.80562 16H4.86115C4.32448 16 3.88892 15.552 3.88892 15V9.6H1.75002C1.28588 9.6 0.840759 9.41036 0.512568 9.07279C0.184376 8.73523 0 8.27739 0 7.8V5C0 4.52261 0.184376 4.06477 0.512568 3.72721C0.840759 3.38964 1.28588 3.2 1.75002 3.2H3.88892V2ZM6.61117 2C6.61117 1.78783 6.52922 1.58434 6.38336 1.43431C6.2375 1.28429 6.03967 1.2 5.83339 1.2C5.6271 1.2 5.42927 1.28429 5.28341 1.43431C5.13755 1.58434 5.0556 1.78783 5.0556 2V3.2H6.61117V2ZM5.0556 14.8H6.61117V9.6H5.0556V14.8Z" fill="black"/>
</svg>
