<svg width="15" height="16" viewBox="0 0 15 16" fill="none" xmlns="http://www.w3.org/2000/svg">
<path d="M0 14.4762V10.8952C0 10.5905 0.08125 10.3142 0.24375 10.0663C0.40625 9.81841 0.625 9.63124 0.9 9.50476L3 8.55238V7.02857C3 6.73651 3.075 6.47314 3.225 6.23848C3.375 6.00381 3.575 5.81638 3.825 5.67619L6.75 4.19048V3.04762H6C5.7875 3.04762 5.6095 2.97448 5.466 2.82819C5.3225 2.68191 5.2505 2.50108 5.25 2.28572C5.2495 2.07035 5.3215 1.88953 5.466 1.74324C5.6105 1.59695 5.7885 1.52381 6 1.52381H6.75V0.761907C6.75 0.546034 6.822 0.365209 6.966 0.219431C7.11 0.0736534 7.288 0.000510564 7.5 2.62726e-06C7.712 -0.000505309 7.89025 0.0726375 8.03475 0.219431C8.17925 0.366225 8.251 0.54705 8.25 0.761907V1.52381H9C9.2125 1.52381 9.39075 1.59695 9.53475 1.74324C9.67875 1.88953 9.7505 2.07035 9.75 2.28572C9.7495 2.50108 9.6775 2.68216 9.534 2.82895C9.3905 2.97575 9.2125 3.04864 9 3.04762H8.25V4.19048L11.175 5.67619C11.425 5.81587 11.625 6.0033 11.775 6.23848C11.925 6.47365 12 6.73702 12 7.02857V8.55238L14.1 9.50476C14.375 9.63175 14.5937 9.81917 14.7562 10.067C14.9187 10.3149 15 10.591 15 10.8952V14.4762C15 14.8952 14.8533 15.2541 14.5597 15.5528C14.2662 15.8514 13.913 16.0005 13.5 16H9.75C9.5375 16 9.3595 15.9269 9.216 15.7806C9.0725 15.6343 9.0005 15.4535 9 15.2381V13.7143C9 13.2952 8.85325 12.9366 8.55975 12.6385C8.26625 12.3403 7.913 12.191 7.5 12.1905C7.087 12.19 6.734 12.3393 6.441 12.6385C6.148 12.9376 6.001 13.2963 6 13.7143V15.2381C6 15.454 5.928 15.635 5.784 15.7813C5.64 15.9276 5.462 16.0005 5.25 16H1.5C1.0875 16 0.7345 15.8509 0.441 15.5528C0.1475 15.2546 0.0005 14.8957 0 14.4762ZM7.5 9.52381C7.8125 9.52381 8.07825 9.41282 8.29725 9.19086C8.51625 8.96889 8.6255 8.69892 8.625 8.38095C8.6245 8.06298 8.51525 7.79327 8.29725 7.57181C8.07925 7.35035 7.8135 7.23911 7.5 7.2381C7.1865 7.23708 6.921 7.34832 6.7035 7.57181C6.486 7.7953 6.3765 8.06502 6.375 8.38095C6.3735 8.69689 6.483 8.96686 6.7035 9.19086C6.924 9.41486 7.1895 9.52584 7.5 9.52381Z" fill="black"/>
</svg>
