<svg width="17" height="16" viewBox="0 0 17 16" fill="none" xmlns="http://www.w3.org/2000/svg">
<path d="M1.10646 15.9516L8.57508 13.3117C9.7152 12.9113 10.0457 11.4647 9.18645 10.6147L5.44387 6.91237C4.58465 6.06239 3.13058 6.38931 2.7175 7.51717L0.0489516 14.9054C-0.182377 15.5593 0.445516 16.1804 1.10646 15.9516ZM10.2522 8.35897L14.4327 4.2235C14.5286 4.12836 14.6426 4.05288 14.768 4.00137C14.8935 3.94987 15.028 3.92336 15.1638 3.92336C15.2997 3.92336 15.4342 3.94987 15.5596 4.00137C15.6851 4.05288 15.7991 4.12836 15.895 4.2235L15.9446 4.27254C16.1842 4.50955 16.5807 4.50955 16.8203 4.27254C17.0599 4.03552 17.0599 3.64322 16.8203 3.40621L16.7707 3.35717C16.3436 2.93744 15.7659 2.70188 15.1638 2.70188C14.5617 2.70188 13.9841 2.93744 13.5569 3.35717L9.37647 7.49265C9.13688 7.72966 9.13688 8.12196 9.37647 8.35897C9.61606 8.59599 10.0126 8.59599 10.2522 8.35897ZM6.12134 4.17446L6.07177 4.2235C5.83218 4.46051 5.83218 4.85281 6.07177 5.08982C6.31136 5.32684 6.70792 5.32684 6.94751 5.08982L6.99708 5.04079C7.42138 4.6182 7.65951 4.04677 7.65951 3.45116C7.65951 2.85555 7.42138 2.28412 6.99708 1.86154L6.95578 1.82067C6.70792 1.57549 6.31136 1.57549 6.07177 1.82067C5.83218 2.05769 5.83218 2.44998 6.07177 2.687L6.12134 2.73603C6.5179 3.12833 6.5179 3.78216 6.12134 4.17446ZM11.9046 8.2609L11.0288 9.12722C10.7892 9.36424 10.7892 9.75653 11.0288 9.99355C11.2684 10.2306 11.665 10.2306 11.9046 9.99355L12.7803 9.12722C12.8762 9.03208 12.9902 8.9566 13.1157 8.9051C13.2411 8.8536 13.3756 8.82709 13.5115 8.82709C13.6473 8.82709 13.7818 8.8536 13.9073 8.9051C14.0327 8.9566 14.1467 9.03208 14.2426 9.12722L15.1349 10.0099C15.3745 10.2469 15.7711 10.2469 16.0107 10.0099C16.2502 9.77288 16.2502 9.38058 16.0107 9.14357L15.1184 8.2609C14.6912 7.84117 14.1136 7.6056 13.5115 7.6056C12.9094 7.6056 12.3317 7.84117 11.9046 8.2609ZM10.2522 3.35717L7.72412 5.85807C7.48453 6.09509 7.48453 6.48738 7.72412 6.7244C7.96371 6.96141 8.36027 6.96141 8.59986 6.7244L11.128 4.2235C11.5523 3.80092 11.7904 3.22948 11.7904 2.63387C11.7904 2.03827 11.5523 1.46683 11.128 1.04425L10.2522 0.177925C10.1356 0.0639293 9.97828 0 9.81434 0C9.6504 0 9.49307 0.0639293 9.37647 0.177925C9.13688 0.414938 9.13688 0.807236 9.37647 1.04425L10.2522 1.91057C10.6488 2.31105 10.6488 2.96488 10.2522 3.35717Z" fill="black"/>
</svg>
