<svg width="17" height="16" viewBox="0 0 17 16" fill="none" xmlns="http://www.w3.org/2000/svg">
<path d="M1.10646 15.9506L8.57508 13.3108C9.7152 12.9103 10.0457 11.4637 9.18645 10.6137L5.44387 6.9114C4.58465 6.06142 3.13058 6.38833 2.7175 7.51619L0.0489516 14.9045C-0.182377 15.5583 0.445516 16.1794 1.10646 15.9506ZM10.2522 8.358L14.4327 4.22252C14.5286 4.12738 14.6426 4.0519 14.768 4.0004C14.8935 3.9489 15.028 3.92239 15.1638 3.92239C15.2997 3.92239 15.4342 3.9489 15.5596 4.0004C15.6851 4.0519 15.7991 4.12738 15.895 4.22252L15.9446 4.27156C16.1842 4.50857 16.5807 4.50857 16.8203 4.27156C17.0599 4.03455 17.0599 3.64225 16.8203 3.40523L16.7707 3.3562C16.3436 2.93647 15.7659 2.7009 15.1638 2.7009C14.5617 2.7009 13.9841 2.93647 13.5569 3.3562L9.37647 7.49167C9.13688 7.72868 9.13688 8.12098 9.37647 8.358C9.61606 8.59501 10.0126 8.59501 10.2522 8.358ZM6.12134 4.17348L6.07177 4.22252C5.83218 4.45953 5.83218 4.85183 6.07177 5.08885C6.31136 5.32586 6.70792 5.32586 6.94751 5.08885L6.99708 5.03981C7.42138 4.61723 7.65951 4.04579 7.65951 3.45018C7.65951 2.85458 7.42138 2.28314 6.99708 1.86056L6.95578 1.8197C6.70792 1.57451 6.31136 1.57451 6.07177 1.8197C5.83218 2.05671 5.83218 2.44901 6.07177 2.68602L6.12134 2.73506C6.5179 3.12736 6.5179 3.78119 6.12134 4.17348ZM11.9046 8.25992L11.0288 9.12625C10.7892 9.36326 10.7892 9.75556 11.0288 9.99257C11.2684 10.2296 11.665 10.2296 11.9046 9.99257L12.7803 9.12625C12.8762 9.03111 12.9902 8.95562 13.1157 8.90412C13.2411 8.85262 13.3756 8.82611 13.5115 8.82611C13.6473 8.82611 13.7818 8.85262 13.9073 8.90412C14.0327 8.95562 14.1467 9.03111 14.2426 9.12625L15.1349 10.0089C15.3745 10.2459 15.7711 10.2459 16.0107 10.0089C16.2502 9.7719 16.2502 9.37961 16.0107 9.14259L15.1184 8.25992C14.6912 7.84019 14.1136 7.60463 13.5115 7.60463C12.9094 7.60463 12.3317 7.84019 11.9046 8.25992ZM10.2522 3.3562L7.72412 5.8571C7.48453 6.09411 7.48453 6.48641 7.72412 6.72342C7.96371 6.96043 8.36027 6.96043 8.59986 6.72342L11.128 4.22252C11.5523 3.79994 11.7904 3.22851 11.7904 2.6329C11.7904 2.03729 11.5523 1.46585 11.128 1.04327L10.2522 0.176948C10.1356 0.0629527 9.97828 -0.000976562 9.81434 -0.000976562C9.6504 -0.000976562 9.49307 0.0629527 9.37647 0.176948C9.13688 0.413962 9.13688 0.80626 9.37647 1.04327L10.2522 1.9096C10.6488 2.31007 10.6488 2.9639 10.2522 3.3562Z" fill="white"/>
</svg>
