<svg width="12" height="16" viewBox="0 0 12 16" fill="none" xmlns="http://www.w3.org/2000/svg">
<path d="M5.64687 0.147266C5.84062 -0.0464844 6.15938 -0.0464844 6.35313 0.147266L8.85312 2.64727C8.93125 2.72539 8.98125 2.82852 8.99687 2.93789L10.2531 13.0004H1.74688L3.00312 2.93789C3.01562 2.82852 3.06562 2.72539 3.14687 2.64727L5.64687 0.147266ZM4.75 8.50039C4.33437 8.50039 4 8.83477 4 9.25039C4 9.66602 4.33437 10.0004 4.75 10.0004H7.25C7.66563 10.0004 8 9.66602 8 9.25039C8 8.83477 7.66563 8.50039 7.25 8.50039H4.75ZM1 14.0004H11C11.5531 14.0004 12 14.4473 12 15.0004C12 15.5535 11.5531 16.0004 11 16.0004H1C0.446875 16.0004 0 15.5535 0 15.0004C0 14.4473 0.446875 14.0004 1 14.0004Z" fill="black"/>
</svg>
