<svg width="11" height="14" viewBox="0 0 11 14" fill="none" xmlns="http://www.w3.org/2000/svg">
<path d="M2.43742 0C4.42394 0 6.41045 0 8.45716 0C8.65782 0.777778 8.65782 0.777778 8.45716 1.16667C8.25851 1.16667 8.05986 1.16667 7.85519 1.16667C7.78897 1.61583 7.72276 2.065 7.65453 2.52778C7.82913 2.56726 7.82913 2.56726 8.00725 2.60753C9.25127 2.93974 9.96739 3.41084 10.6644 4.47222C11.2249 6.10166 11.0676 7.73575 10.3101 9.26027C9.86419 10.0884 9.39372 10.8887 8.85848 11.6667C8.80825 12.1691 8.80825 12.1691 8.85848 12.6389C8.9247 12.7031 8.99091 12.7672 9.05914 12.8333C9.05914 13.2183 9.05914 13.6033 9.05914 14C6.67532 14 4.2915 14 1.83545 14C1.83545 13.615 1.83545 13.23 1.83545 12.8333C1.96788 12.8333 2.10032 12.8333 2.23677 12.8333C1.99656 11.6695 1.45247 10.8423 0.763184 9.8673C0.100453 8.8025 -0.0274083 7.86064 0.00444613 6.63542C0.00716207 6.43465 0.00716207 6.43465 0.00993288 6.22982C0.0146145 5.90318 0.0218104 5.57658 0.0295284 5.25C0.161963 5.18583 0.294397 5.12167 0.430844 5.05556C0.497061 5.31222 0.563279 5.56889 0.631502 5.83333C1.22746 5.83333 1.82341 5.83333 2.43742 5.83333C2.30499 6.41083 2.17256 6.98833 2.03611 7.58333C2.32581 7.64349 2.61551 7.70365 2.91399 7.76562C3.41328 7.92057 3.41328 7.92057 3.84203 8.16667C4.13609 8.7686 4.17268 9.2417 4.24335 9.91667C4.30956 9.14667 4.37578 8.37667 4.444 7.58333C4.17914 7.455 3.91427 7.32667 3.64137 7.19444C3.7726 6.1771 4.12207 5.67949 4.64466 4.66667C3.45275 4.66667 2.26085 4.66667 1.03282 4.66667C0.966601 4.41 0.900384 4.15333 0.83216 3.88889C2.25962 2.58536 2.25962 2.58536 3.24006 2.52778C3.17384 2.07861 3.10762 1.62944 3.0394 1.16667C2.84075 1.16667 2.6421 1.16667 2.43742 1.16667C2.21168 0.4375 2.21168 0.4375 2.43742 0Z" fill="white"/>
</svg>
