<svg width="14" height="16" viewBox="0 0 14 16" fill="none" xmlns="http://www.w3.org/2000/svg">
<path d="M11.2837 7.68631H11.3529C12.0529 7.68631 12.459 6.92986 12.0615 6.38122L7.67147 0.354505C7.59183 0.244753 7.48581 0.155122 7.36244 0.0932323C7.23907 0.0313422 7.10198 -0.000976562 6.96284 -0.000976562C6.8237 -0.000976562 6.68661 0.0313422 6.56324 0.0932323C6.43987 0.155122 6.33385 0.244753 6.25421 0.354505L1.89875 6.38122C1.50123 6.92986 1.91604 7.68631 2.61602 7.68631H2.65059L0.144468 11.3938C-0.23577 11.9424 0.179035 12.6739 0.870378 12.6739H5.26041V14.3531C5.26041 15.2592 6.02953 15.999 6.97148 15.999C7.91344 15.999 8.68256 15.2592 8.68256 14.3531V12.6739H13.1331C13.8244 12.6739 14.2392 11.9341 13.8503 11.3855L11.2837 7.68631Z" fill="white"/>
</svg>
