<svg width="12" height="16" viewBox="0 0 12 16" fill="none" xmlns="http://www.w3.org/2000/svg">
<path d="M2.4 5.59902V0.799026C2.4 0.572359 2.4768 0.382493 2.6304 0.229426C2.784 0.0763596 2.97387 -0.000440471 3.2 -0.000973804C3.42613 -0.00150714 3.61627 0.0752929 3.7704 0.229426C3.92453 0.383559 4.00107 0.573426 4 0.799026V5.59902H4.8V0.799026C4.8 0.572359 4.8768 0.382493 5.0304 0.229426C5.184 0.0763596 5.37387 -0.000440471 5.6 -0.000973804C5.82613 -0.00150714 6.01627 0.0752929 6.1704 0.229426C6.32453 0.383559 6.40107 0.573426 6.4 0.799026V5.59902C6.4 6.34569 6.17013 6.99902 5.7104 7.55902C5.25067 8.11902 4.68053 8.49236 4 8.67902V15.199C4 15.4257 3.9232 15.6158 3.7696 15.7694C3.616 15.923 3.42613 15.9996 3.2 15.999C2.97387 15.9985 2.784 15.9217 2.6304 15.7686C2.4768 15.6156 2.4 15.4257 2.4 15.199V8.67902C1.72 8.49236 1.15013 8.11902 0.6904 7.55902C0.230667 6.99902 0.000533333 6.34569 0 5.59902V0.799026C0 0.572359 0.0768001 0.382493 0.2304 0.229426C0.384 0.0763596 0.573867 -0.000440471 0.8 -0.000973804C1.02613 -0.00150714 1.21627 0.0752929 1.3704 0.229426C1.52453 0.383559 1.60107 0.573426 1.6 0.799026V5.59902H2.4ZM10.4 9.59902H8.8C8.57333 9.59902 8.38347 9.52222 8.2304 9.36862C8.07733 9.21502 8.00053 9.02516 8 8.79902V3.99902C8 3.06569 8.34347 2.16569 9.0304 1.29903C9.71733 0.432359 10.4272 -0.000973804 11.16 -0.000973804C11.4 -0.000973804 11.6 0.0923594 11.76 0.279026C11.92 0.465693 12 0.685693 12 0.939026V15.199C12 15.4257 11.9232 15.6158 11.7696 15.7694C11.616 15.923 11.4261 15.9996 11.2 15.999C10.9739 15.9985 10.784 15.9217 10.6304 15.7686C10.4768 15.6156 10.4 15.4257 10.4 15.199V9.59902Z" fill="white"/>
</svg>
