<svg width="15" height="16" viewBox="0 0 15 16" fill="none" xmlns="http://www.w3.org/2000/svg">
<path fill-rule="evenodd" clip-rule="evenodd" d="M4.44575 3.85863V3.03797C4.44575 2.23225 4.76749 1.45953 5.3402 0.889802C5.91291 0.320071 6.68966 0 7.49959 0C8.30952 0 9.08628 0.320071 9.65899 0.889802C10.2317 1.45953 10.5534 2.23225 10.5534 3.03797V3.85863C11.6097 3.88861 12.253 3.99635 12.7457 4.39899C13.4216 4.94987 13.6089 5.88476 13.986 7.75534L14.4746 10.1857C15.0153 12.8753 15.2857 14.2202 14.5527 15.1105C13.8198 16.0008 12.4403 16 9.68207 16H5.31711C2.5597 16 1.18017 16 0.447252 15.1105C-0.28567 14.221 -0.0153032 12.8762 0.525431 10.1857L1.01405 7.75534C1.39028 5.88476 1.5784 4.94987 2.2535 4.39899C2.747 3.99716 3.39034 3.88861 4.44656 3.85863M5.66729 3.03797C5.66729 2.55454 5.86033 2.09091 6.20396 1.74907C6.54758 1.40723 7.01364 1.21519 7.49959 1.21519C7.98555 1.21519 8.4516 1.40723 8.79523 1.74907C9.13885 2.09091 9.3319 2.55454 9.3319 3.03797V3.8481H5.66729V3.03797ZM7.49959 12.1519C7.12059 12.152 6.75087 12.0352 6.44138 11.8176C6.13189 11.5999 5.89786 11.2922 5.77153 10.9367C5.74576 10.8603 5.70496 10.7897 5.6515 10.7291C5.59804 10.6685 5.53299 10.6191 5.46014 10.5837C5.38729 10.5484 5.3081 10.5278 5.22718 10.5232C5.14626 10.5187 5.06523 10.5301 4.98882 10.557C4.91241 10.5839 4.84214 10.6256 4.7821 10.6798C4.72207 10.734 4.67347 10.7995 4.63915 10.8725C4.60482 10.9456 4.58545 11.0247 4.58217 11.1052C4.57889 11.1858 4.59175 11.2662 4.62002 11.3418C4.83058 11.9343 5.22059 12.4472 5.73637 12.81C6.25214 13.1729 6.8683 13.3677 7.5 13.3677C8.1317 13.3677 8.74786 13.1729 9.26363 12.81C9.7794 12.4472 10.1694 11.9343 10.38 11.3418C10.434 11.1898 10.4251 11.0226 10.3552 10.8772C10.2853 10.7317 10.1602 10.6198 10.0074 10.5661C9.8546 10.5124 9.6866 10.5212 9.54037 10.5907C9.39414 10.6602 9.28166 10.7847 9.22766 10.9367C9.10133 11.2922 8.86729 11.5999 8.5578 11.8176C8.24831 12.0352 7.8786 12.152 7.49959 12.1519Z" fill="white"/>
</svg>
