<svg width="58" height="61" viewBox="0 0 58 61" fill="none" xmlns="http://www.w3.org/2000/svg">
<g filter="url(#filter0_d_1025_7882)">
<path fill-rule="evenodd" clip-rule="evenodd" d="M18.8192 15.7817V13.0633C18.8192 10.3943 19.8916 7.8347 21.8007 5.94747C23.7097 4.06024 26.2989 3 28.9986 3C31.6984 3 34.2876 4.06024 36.1966 5.94747C38.1056 7.8347 39.1781 10.3943 39.1781 13.0633V15.7817C42.6989 15.881 44.8433 16.2379 46.4856 17.5716C48.7387 19.3965 49.363 22.4933 50.6198 28.6896L52.2486 36.7402C54.051 45.6496 54.9522 50.1043 52.5092 53.0535C50.0661 56.0027 45.4677 56 36.2736 56H21.7237C12.5323 56 7.93391 56 5.49084 53.0535C3.04777 50.1069 3.94899 45.6523 5.75144 36.7402L7.38015 28.6896C8.63426 22.4933 9.26132 19.3965 11.5117 17.5716C13.1567 16.2406 15.2984 15.881 18.8192 15.7817ZM22.891 13.0633C22.891 11.4619 23.5344 9.92614 24.6799 8.7938C25.8253 7.66146 27.3788 7.02532 28.9986 7.02532C30.6185 7.02532 32.172 7.66146 33.3174 8.7938C34.4628 9.92614 35.1063 11.4619 35.1063 13.0633V15.7468H22.891V13.0633ZM28.9986 43.2532C27.7353 43.2535 26.5029 42.8666 25.4713 42.1457C24.4396 41.4248 23.6595 40.4054 23.2384 39.2278C23.1525 38.9746 23.0165 38.7408 22.8383 38.5401C22.6601 38.3393 22.4433 38.1757 22.2005 38.0586C21.9576 37.9415 21.6937 37.8734 21.4239 37.8582C21.1542 37.8431 20.8841 37.8811 20.6294 37.9701C20.3747 38.0592 20.1405 38.1974 19.9403 38.3769C19.7402 38.5563 19.5782 38.7733 19.4638 39.0153C19.3494 39.2572 19.2848 39.5192 19.2739 39.7861C19.263 40.053 19.3058 40.3193 19.4001 40.5696C20.1019 42.5322 21.402 44.2314 23.1212 45.4333C24.8405 46.6351 26.8943 47.2804 29 47.2804C31.1057 47.2804 33.1595 46.6351 34.8788 45.4333C36.598 44.2314 37.8981 42.5322 38.5999 40.5696C38.7799 40.0661 38.7502 39.5125 38.5173 39.0306C38.2844 38.5487 37.8674 38.1781 37.358 38.0001C36.8487 37.8222 36.2887 37.8516 35.8012 38.0818C35.3138 38.3121 34.9389 38.7243 34.7589 39.2278C34.3378 40.4054 33.5576 41.4248 32.526 42.1457C31.4944 42.8666 30.262 43.2535 28.9986 43.2532Z" fill="black"/>
</g>
<defs>
<filter id="filter0_d_1025_7882" x="0" y="0" width="58" height="61" filterUnits="userSpaceOnUse" color-interpolation-filters="sRGB">
<feFlood flood-opacity="0" result="BackgroundImageFix"/>
<feColorMatrix in="SourceAlpha" type="matrix" values="0 0 0 0 0 0 0 0 0 0 0 0 0 0 0 0 0 0 127 0" result="hardAlpha"/>
<feOffset dy="1"/>
<feGaussianBlur stdDeviation="2"/>
<feComposite in2="hardAlpha" operator="out"/>
<feColorMatrix type="matrix" values="0 0 0 0 0 0 0 0 0 0 0 0 0 0 0 0 0 0 0.2 0"/>
<feBlend mode="normal" in2="BackgroundImageFix" result="effect1_dropShadow_1025_7882"/>
<feBlend mode="normal" in="SourceGraphic" in2="effect1_dropShadow_1025_7882" result="shape"/>
</filter>
</defs>
</svg>
