<svg width="16" height="16" viewBox="0 0 16 16" fill="none" xmlns="http://www.w3.org/2000/svg">
<path d="M2.708 1.99903C3.91177 0.934361 5.40927 0.258465 7.004 0.0600265C7.066 0.490027 7.144 0.969027 7.244 1.46803C7.424 2.36803 7.674 3.34803 8.02 4.24503C8.296 4.96403 8.643 5.65403 9.082 6.21003L8 7.29203L2.708 1.99903ZM2 2.70803C0.934975 3.91167 0.258725 5.40918 0.0600029 7.00403C0.490003 7.06603 0.968003 7.14403 1.467 7.24403C2.367 7.42403 3.347 7.67403 4.244 8.02003C4.963 8.29603 5.654 8.64303 6.209 9.08203L7.293 7.99903L2 2.70803ZM5.496 9.79603C5.066 9.47603 4.514 9.19503 3.886 8.95303C3.059 8.63503 2.139 8.39903 1.271 8.22503C0.849308 8.14044 0.4255 8.06675 2.94263e-06 8.00403C-0.0016697 9.95152 0.709778 11.8322 2 13.291L5.496 9.79603ZM2.706 13.999L6.203 10.503C6.523 10.933 6.803 11.485 7.045 12.113C7.363 12.939 7.599 13.86 7.773 14.727C7.863 15.175 7.935 15.607 7.993 16C6.04585 16.0015 4.16553 15.29 2.707 14M6.917 9.79003L8 8.70703L13.292 13.999C12.0884 15.0641 10.5909 15.7403 8.996 15.939C8.933 15.509 8.854 15.03 8.755 14.531C8.575 13.631 8.325 12.651 7.98 11.754C7.703 11.036 7.357 10.346 6.917 9.79003ZM14 13.292C15.065 12.0884 15.7413 10.5909 15.94 8.99603C15.51 8.93403 15.031 8.85603 14.532 8.75603C13.632 8.57603 12.652 8.32603 11.755 7.98103C11.037 7.70403 10.346 7.35803 9.79 6.91803L8.707 7.99903L14 13.292ZM10.503 6.20503C10.933 6.52503 11.486 6.80503 12.113 7.04703C12.94 7.36503 13.861 7.60103 14.728 7.77503C15.176 7.86503 15.608 7.93703 16.001 7.99503C16.0027 6.04753 15.2912 4.16682 14.001 2.70803L10.503 6.20503ZM13.292 1.99903C11.8332 0.708802 9.9525 -0.00264626 8.005 -0.00097362C8.063 0.392026 8.135 0.824026 8.225 1.27203C8.399 2.14003 8.635 3.06003 8.953 3.88603C9.195 4.51403 9.475 5.06603 9.795 5.49603L13.292 1.99903Z" fill="black"/>
</svg>
