<svg width="14" height="16" viewBox="0 0 14 16" fill="none" xmlns="http://www.w3.org/2000/svg">
<path d="M3.88892 1.99902C3.88892 1.46859 4.09379 0.959883 4.45844 0.58481C4.8231 0.209737 5.31768 -0.000976562 5.83339 -0.000976562C6.34909 -0.000976562 6.84367 0.209737 7.20833 0.58481C7.57298 0.959883 7.77785 1.46859 7.77785 1.99902V3.19902H10.406C10.8698 3.19923 11.3147 3.38885 11.6427 3.72622L13.829 5.97422C13.8832 6.02994 13.9262 6.0961 13.9556 6.16892C13.9849 6.24174 14 6.3198 14 6.39862C14 6.47745 13.9849 6.5555 13.9556 6.62832C13.9262 6.70114 13.8832 6.7673 13.829 6.82302L11.6434 9.07182C11.4809 9.23897 11.288 9.37155 11.0757 9.46201C10.8634 9.55247 10.6358 9.59903 10.406 9.59902H7.77785V14.999C7.77785 15.551 7.34229 15.999 6.80562 15.999H4.86115C4.32448 15.999 3.88892 15.551 3.88892 14.999V9.59902H1.75002C1.28588 9.59902 0.840759 9.40938 0.512568 9.07182C0.184376 8.73425 0 8.27641 0 7.79902V4.99902C0 4.52163 0.184376 4.0638 0.512568 3.72623C0.840759 3.38867 1.28588 3.19902 1.75002 3.19902H3.88892V1.99902ZM6.61117 1.99902C6.61117 1.78685 6.52922 1.58337 6.38336 1.43334C6.2375 1.28331 6.03967 1.19902 5.83339 1.19902C5.6271 1.19902 5.42927 1.28331 5.28341 1.43334C5.13755 1.58337 5.0556 1.78685 5.0556 1.99902V3.19902H6.61117V1.99902ZM5.0556 14.799H6.61117V9.59902H5.0556V14.799Z" fill="white"/>
</svg>
